<svg width="512" height="512" viewBox="0 0 512 512" fill="none" xmlns="http://www.w3.org/2000/svg">
<path d="M419.893 305.906V144.491C419.893 138.061 416.462 132.118 410.893 128.903L226.618 22.5125C221.048 19.2971 214.187 19.2972 208.618 22.5125L24.3438 128.903C18.7746 132.118 15.3438 138.061 15.3438 144.491V357.273C15.3438 363.704 18.7745 369.646 24.3437 372.861L208.618 479.253C214.187 482.468 221.048 482.468 226.618 479.253L308.746 431.835" stroke="#BF1E30" stroke-width="20.99" stroke-miterlimit="10"/>
<path d="M15.3438 134.099L208.618 245.686C214.187 248.901 221.048 248.901 226.618 245.686L419.893 134.099" stroke="#BF1E30" stroke-width="20.99" stroke-miterlimit="10"/>
<path d="M217.618 250.883V484.449" stroke="#BF1E30" stroke-width="20.99" stroke-miterlimit="10"/>
<path d="M400.089 497.004C453.421 497.004 496.655 453.769 496.655 400.437C496.655 347.105 453.421 303.871 400.089 303.871C346.757 303.871 303.523 347.105 303.523 400.437C303.523 453.769 346.757 497.004 400.089 497.004Z" stroke="#BF1E30" stroke-width="20.99" stroke-miterlimit="10"/>
<path d="M400.089 352.754V448.12" stroke="#BF1E30" stroke-width="20.99" stroke-miterlimit="10" stroke-linecap="round"/>
<path d="M447.773 400.437H352.406" stroke="#BF1E30" stroke-width="20.99" stroke-miterlimit="10" stroke-linecap="round"/>
</svg>
