<svg xmlns="http://www.w3.org/2000/svg" version="1.1" xmlns:xlink="http://www.w3.org/1999/xlink" xmlns:svgjs="http://svgjs.com/svgjs" width="512" height="512" x="0" y="0" viewBox="0 0 60 60" style="enable-background:new 0 0 512 512" xml:space="preserve"><g><path d="M3,39a3,3,0,0,0-3,3v8.014a3,3,0,0,0,2.974,3c2.158.013,5.506.038,7.118.032a5.674,5.674,0,0,1,1.529.241l20.09,6.474a5,5,0,0,0,4.553-.778L58.719,41.925a3.309,3.309,0,0,0,.45-4.807l-.034-.039a3.279,3.279,0,0,0-4.228-.552L46.29,41.983a3.664,3.664,0,0,0-3.111-3.321l-.961-.152L53.2,32.081a3.691,3.691,0,0,0,1.8-3.16V12.082A3.658,3.658,0,0,0,53.2,8.92L38.812.487a3.622,3.622,0,0,0-3.627,0L20.809,8.917A3.661,3.661,0,0,0,19,12.082V28.921a3.691,3.691,0,0,0,1.8,3.163l7.1,4.157-7.393-1.172a6.033,6.033,0,0,0-3.71.625l-4.936,2.7a5.015,5.015,0,0,1-2.4.611Zm49.186-8.643L39.1,38.016,38,37.841V21.848a3.489,3.489,0,0,0,.833-.375L53,12.735V28.921A1.677,1.677,0,0,1,52.186,30.357ZM36.192,2.218a1.612,1.612,0,0,1,1.612,0l14.384,8.432a1.586,1.586,0,0,1,.171.132L37.777,19.773a1.441,1.441,0,0,1-1.559,0L21.641,10.779a1.529,1.529,0,0,1,.175-.134ZM21.82,30.36A1.678,1.678,0,0,1,21,28.921V12.734l14.162,8.735a3.555,3.555,0,0,0,.838.379V37.524L33.331,37.1Zm-9,9.785,4.922-2.687a4.048,4.048,0,0,1,2.458-.413l22.668,3.593A1.691,1.691,0,0,1,42.614,44H23a1,1,0,0,0,0,2h4.664l5.914,4.493a2.484,2.484,0,0,0,2.821.119l19.589-12.4a1.291,1.291,0,0,1,1.647.192.347.347,0,0,0,.025.029,1.31,1.31,0,0,1-.158,1.908L35.055,57.39a3,3,0,0,1-2.731.465l-20.09-6.473h0a6.94,6.94,0,0,0-2.132-.337H10.09c-1.6.007-4.949-.019-7.1-.032a1,1,0,0,1-.987-1V42a1,1,0,0,1,1-1H9.469A7.029,7.029,0,0,0,12.823,40.145ZM39.945,46l-4.616,2.923a.483.483,0,0,1-.543-.023L30.969,46Z" fill="#bf1e30" data-original="#000000"></path></g></svg>