<svg xmlns="http://www.w3.org/2000/svg" version="1.1" xmlns:xlink="http://www.w3.org/1999/xlink" xmlns:svgjs="http://svgjs.com/svgjs" width="512" height="512" x="0" y="0" viewBox="0 0 512 512" style="enable-background:new 0 0 512 512" xml:space="preserve"><g><path d="m495.935 59.603-46.817-46.816c-3.13-3.132-7.125-4.787-11.553-4.787h-255.616c-9.01 0-16.339 7.33-16.339 16.338v187.897c-2.756-.156-5.531-.243-8.326-.243-80.507 0-146.004 65.497-146.004 146.003 0 80.508 65.497 146.005 146.004 146.005 51.162 0 96.255-26.458 122.335-66.404h204.763c9.009 0 16.338-7.33 16.338-16.339v-350.102c0-4.427-1.655-8.422-4.785-11.552zm-46.917-24.289 24.388 24.388h-24.388zm-291.734 452.686c-71.685 0-130.004-58.319-130.004-130.004 0-71.684 58.319-130.003 130.004-130.003 71.684 0 130.003 58.319 130.003 130.003 0 71.685-58.32 130.004-130.003 130.004zm327.098-66.404h-195.693c9.348-19.235 14.597-40.815 14.597-63.6 0-72.219-52.71-132.349-121.677-143.965v-189.693c0-.174.165-.338.339-.338h251.069v39.533c0 6.71 5.459 12.169 12.169 12.169h39.533v345.555c.001.174-.163.339-.337.339zm-151.216-204.983c1.381 0 2.763-.357 4-1.072l69.44-40.091c2.476-1.429 4-4.07 4-6.928v-80.184c0-2.858-1.524-5.499-4-6.928l-69.44-40.092c-2.475-1.429-5.525-1.429-8 0l-69.442 40.092c-2.476 1.429-4 4.07-4 6.928v80.183c0 2.858 1.524 5.499 4 6.928l69.441 40.091c1.238.716 2.62 1.073 4.001 1.073zm-28.79-114.042 53.441-30.854 4.137 2.389-53.441 30.854zm-8 13.856 4.137 2.389v13.099l-4.137-2.389zm81.578-33.084 8.652 4.995-53.44 30.854-8.652-4.995zm-36.788 111.414v-61.708l53.44-30.854v61.708zm-8-137.273 8.651 4.995-53.441 30.854-8.652-4.995zm-61.442 44.711 8.652 4.995v26.956c0 2.858 1.524 5.499 4 6.928l20.137 11.626c1.237.714 2.618 1.072 4 1.072 1.381 0 2.763-.357 4-1.072 2.475-1.429 4-4.07 4-6.928v-17.719l8.652 4.995v61.709l-53.441-30.854zm.327 255.108c-.891-3.324-3.019-6.101-5.991-7.816-20.373-11.763-40.653-22.71-60.266-33.297-8.975-4.845-18.185-9.819-27.346-14.839 1.252-1.622 2.521-3.175 3.802-4.662.834.188 1.682.304 2.539.304 1.016 0 2.039-.134 3.047-.404 3.016-.808 5.533-2.738 7.089-5.435l5.947-10.3c1.558-2.697 1.971-5.843 1.162-8.858-.808-3.014-2.737-5.531-5.435-7.089l-45.269-26.136c-.001-.001-.001-.001-.002-.001-5.573-3.215-12.726-1.3-15.944 4.273l-5.948 10.303c-1.557 2.696-1.969 5.842-1.161 8.855.5 1.863 1.429 3.533 2.7 4.906-5.092 14.561-14.451 30.799-24.516 42.536-1.837-.424-3.764-.394-5.637.109-3.015.808-5.532 2.737-7.091 5.435l-5.945 10.3c-1.558 2.697-1.971 5.843-1.162 8.858.808 3.014 2.737 5.531 5.435 7.089l45.266 26.135c1.796 1.037 3.79 1.567 5.812 1.567 1.016 0 2.039-.134 3.047-.404 3.015-.808 5.532-2.737 7.091-5.435l5.945-10.3c1.558-2.696 1.971-5.842 1.163-8.856-.502-1.875-1.439-3.558-2.725-4.937.648-1.842 1.357-3.706 2.134-5.588 8.934 5.427 17.852 10.92 26.541 16.274 18.976 11.691 38.598 23.781 58.974 35.546 1.978 1.142 4.175 1.725 6.402 1.725 1.12 0 2.249-.147 3.361-.445 3.325-.891 6.101-3.02 7.815-5.991l7.885-13.656c1.718-2.973 2.173-6.442 1.281-9.766zm-151.201-39.939c9.742-12.021 18.495-27.203 24.007-41.638l22.977 13.266c-9.744 11.99-18.516 27.161-24.056 41.609zm26.228-62.574 37.776 21.81-1.621 2.809-37.775-21.811zm-5.497 96.761-37.775-21.81 1.621-2.808 37.775 21.81zm109.016 18.461c-19.217-11.158-37.836-22.631-55.87-33.743-9.132-5.627-18.517-11.404-27.926-17.113.844-1.52 1.715-3.026 2.61-4.516 9.648 5.294 19.345 10.533 28.784 15.628 18.639 10.062 37.885 20.451 57.154 31.513zm-94.937 24.609h-3.575v-11.511c0-4.418-3.582-8-8-8h-60.829c-4.418 0-8 3.582-8 8v11.511h-4.66c-5.756 0-10.438 4.684-10.438 10.439v23.146c0 5.756 4.683 10.438 10.438 10.438h85.063c5.756 0 10.439-4.683 10.439-10.438v-23.146c.001-5.755-4.682-10.439-10.438-10.439zm-64.404-3.511h44.828v3.511h-44.828zm58.843 31.535h-73.941v-12.023h73.941zm301.436-172.232c0 4.418-3.582 8-8 8h-152.552c-4.418 0-8-3.582-8-8s3.582-8 8-8h152.552c4.418 0 8 3.582 8 8zm0 44.525c0 4.418-3.582 8-8 8h-130.499c-4.418 0-8-3.582-8-8s3.582-8 8-8h130.499c4.418 0 8 3.583 8 8zm0 44.525c0 4.418-3.582 8-8 8h-119.271c-4.418 0-8-3.582-8-8s3.582-8 8-8h119.271c4.418 0 8 3.582 8 8zm0 44.525c0 4.418-3.582 8-8 8h-120.252c-4.418 0-8-3.582-8-8s3.582-8 8-8h120.252c4.418 0 8 3.582 8 8z" fill="#bf1e30" data-original="#000000"></path></g></svg>