<svg xmlns="http://www.w3.org/2000/svg" version="1.1" xmlns:xlink="http://www.w3.org/1999/xlink" xmlns:svgjs="http://svgjs.com/svgjs" width="512" height="512" x="0" y="0" viewBox="0 0 66 66" style="enable-background:new 0 0 512 512" xml:space="preserve" class=""><g><g><path d="m62.72 41.71c-1.16-.73-2.59-.81-3.8-.22l-10.15 4.69c0-.05 0-.1 0-.15 0-2.21-1.8-4.01-4.01-4.01h-6.9c-3.45-3.02-7.76-4.87-11.59-4.97-3.96-.1-7.51-.05-9.1-.02-.01-1.67-1.37-3.03-3.05-3.03h-9.63c-1.69 0-3.06 1.37-3.06 3.06v16.9c0 1.69 1.37 3.06 3.06 3.06h9.63c1.48 0 2.72-1.06 3-2.46 3.53 2.04 13.67 7.64 18.4 7.64.1 0 .21 0 .31-.01 8.28-.47 26.06-13.22 26.73-13.71 1.24-.7 2.01-2.01 2.01-3.43 0-1.36-.69-2.61-1.85-3.34zm-47.24 12.25c0 .75-.61 1.36-1.36 1.36h-9.63c-.75 0-1.36-.61-1.36-1.36v-16.9c0-.75.61-1.36 1.36-1.36h9.63c.75 0 1.36.61 1.36 1.36v.85 15.2zm46.17-6.91c-.18.13-18.13 13.01-25.91 13.45-3.96.22-14.35-5.38-18.55-7.87v-13.89c1.55-.03 5.1-.08 9.05.02 3.52.08 7.54 1.86 10.74 4.75.16.14.36.22.57.22h7.23c1.27 0 2.31 1.03 2.31 2.31 0 .35-.1.67-.24.97-3.38.92-8.58.5-13.73-.11-.47-.06-.89.28-.95.75s.28.89.75.95c3.4.4 6.39.67 8.97.67 2.25 0 4.19-.2 5.8-.7.02-.01.03-.02.04-.02.02-.01.05-.01.07-.02l11.87-5.48c.7-.34 1.51-.29 2.17.12s1.05 1.12 1.05 1.9c-.02.78-.46 1.53-1.24 1.98z" fill="#bf1e30" data-original="#000000"></path><path d="m11.05 47.75c-1.65 0-2.98 1.34-2.98 2.99s1.34 2.98 2.98 2.98 2.98-1.34 2.98-2.98c.01-1.66-1.33-2.99-2.98-2.99zm0 4.26c-.71 0-1.28-.58-1.28-1.28 0-.71.57-1.28 1.28-1.28s1.28.57 1.28 1.28-.57 1.28-1.28 1.28z" fill="#bf1e30" data-original="#000000"></path><path d="m44.5 39.4c9.82 0 17.8-7.99 17.8-17.8s-7.98-17.8-17.8-17.8-17.8 7.99-17.8 17.8 7.98 17.8 17.8 17.8zm0-33.9c8.88 0 16.1 7.22 16.1 16.1s-7.22 16.1-16.1 16.1-16.1-7.22-16.1-16.1 7.22-16.1 16.1-16.1z" fill="#bf1e30" data-original="#000000"></path><path d="m44.5 34.41c7.07 0 12.81-5.75 12.81-12.81s-5.74-12.82-12.81-12.82-12.81 5.75-12.81 12.82 5.74 12.81 12.81 12.81zm0-23.92c6.13 0 11.11 4.98 11.11 11.11s-4.98 11.11-11.11 11.11-11.11-4.98-11.11-11.11 4.98-11.11 11.11-11.11z" fill="#bf1e30" data-original="#000000"></path><path d="m40.31 28.03c.14.09.31.14.46.14.28 0 .55-.14.71-.39l7.45-11.43c.26-.39.15-.92-.25-1.18s-.92-.14-1.18.25l-7.45 11.43c-.24.39-.13.92.26 1.18z" fill="#bf1e30" data-original="#000000"></path><path d="m46.48 22.35c-.51.61-.77 1.38-.77 2.29s.26 1.67.77 2.29c.54.65 1.33 1 2.28 1s1.74-.35 2.28-1c.51-.61.77-1.38.77-2.29s-.26-1.68-.77-2.29c-.54-.65-1.33-1-2.28-1s-1.73.35-2.28 1zm3.25 1.09c.25.3.37.7.37 1.2s-.12.9-.37 1.2c-.14.16-.39.38-.97.38s-.83-.22-.97-.38c-.25-.3-.37-.69-.37-1.2 0-.5.12-.9.37-1.2.14-.16.39-.38.97-.38s.83.21.97.38z" fill="#bf1e30" data-original="#000000"></path><path d="m40.24 21.85c.95 0 1.74-.35 2.28-1 .51-.61.77-1.38.77-2.29 0-.9-.26-1.67-.77-2.29-.54-.65-1.33-1-2.28-1s-1.73.34-2.28 1c-.51.61-.77 1.38-.77 2.29s.26 1.67.77 2.29c.54.65 1.33 1 2.28 1zm-.97-4.49c.14-.16.39-.38.97-.38s.83.22.97.38c.25.3.37.7.37 1.2s-.12.9-.38 1.2c-.14.16-.39.38-.97.38s-.83-.22-.97-.38c-.25-.3-.37-.69-.37-1.2s.13-.9.38-1.2z" fill="#bf1e30" data-original="#000000"></path></g></g></svg>