<svg xmlns="http://www.w3.org/2000/svg" version="1.1" xmlns:xlink="http://www.w3.org/1999/xlink" xmlns:svgjs="http://svgjs.com/svgjs" width="512" height="512" x="0" y="0" viewBox="0 0 62 62" style="enable-background:new 0 0 512 512" xml:space="preserve" class=""><g><g><path d="m51 8c-1.654 0-3 1.346-3 3s1.346 3 3 3 3-1.346 3-3-1.346-3-3-3zm0 4c-.551 0-1-.449-1-1s.449-1 1-1 1 .449 1 1-.449 1-1 1z" fill="#bf1e30" data-original="#000000" class=""></path><path d="m60.657 14h1.343v-6h-1.343c-.62 0-.864-.472-.924-.617s-.222-.651.217-1.09l.95-.95-4.243-4.243-.95.95c-.439.438-.945.277-1.09.217s-.617-.304-.617-.924v-1.343h-6v1.343c0 .62-.472.864-.617.924-.146.06-.652.222-1.09-.217l-.95-.95-2.899 2.9h-25.03c-.534 0-1.036.208-1.414.586l-7.414 7.414c-.378.378-.586.88-.586 1.414v8.205l-3.557 4.002c-2.865 3.224-4.443 7.374-4.443 11.687 0 1.894.304 3.766.903 5.563l3.857 11.572c-.459.367-.76.925-.76 1.557v6h16v-4h30c1.103 0 2-.897 2-2v-34h2v-1.343c0-.62.472-.864.617-.924.145-.061.651-.222 1.09.217l.95.95 4.243-4.243-.95-.95c-.438-.438-.277-.945-.217-1.09s.304-.617.924-.617zm-49.243-2 4.586-4.586v4.586zm4.586 2h2v-2h18v4h-20zm-14 23.308c0-3.822 1.398-7.501 3.938-10.357l2.062-2.321v10.924c0 1.08.192 2.14.571 3.151l2.492 6.646 1.873-.702-2.492-6.646c-.295-.786-.444-1.609-.444-2.449 0-.857.697-1.554 1.554-1.554.542 0 1.053.289 1.333.754l2.406 4.011c1.771 2.952 2.707 6.331 2.707 9.774 0 1.551-.191 3.101-.567 4.607l-.214.854h-10.498l-3.921-11.762c-.531-1.593-.8-3.252-.8-4.93zm16 22.692h-12v-4h12zm32-4h-30c0-.659-.325-1.24-.818-1.605l.191-.764c.416-1.665.627-3.378.627-5.092 0-3.805-1.035-7.54-2.992-10.802l-2.406-4.012c-.64-1.064-1.807-1.725-3.048-1.725-.56 0-1.083.142-1.554.373v-18.373h4v2c0 1.103.897 2 2 2h20c1.103 0 2-.897 2-2v-4c0-1.103-.897-2-2-2h-18v-4h23.757l.293.293c.438.438.277.945.217 1.09s-.304.617-.924.617h-1.343v6h1.343c.62 0 .864.472.924.617s.222.651-.217 1.09l-.95.95 4.243 4.243.95-.95c.439-.439.945-.277 1.09-.217s.617.304.617.924v1.343h2zm7.885-42.148c-.387.934-.291 1.941.235 2.756l-1.512 1.512c-.815-.526-1.824-.623-2.756-.235-.934.387-1.579 1.167-1.783 2.115h-2.139c-.204-.947-.849-1.728-1.783-2.115-.933-.387-1.941-.29-2.756.235l-1.512-1.512c.526-.814.622-1.822.235-2.756s-1.167-1.579-2.115-1.783v-2.138c.947-.204 1.728-.849 2.115-1.783s.291-1.941-.235-2.756l1.512-1.512c.814.525 1.823.621 2.756.235.935-.387 1.58-1.168 1.784-2.115h2.139c.204.947.849 1.728 1.783 2.115s1.941.292 2.756-.235l1.512 1.512c-.526.814-.622 1.822-.235 2.756.386.934 1.167 1.579 2.114 1.783v2.139c-.947.203-1.728.848-2.115 1.782z" fill="#bf1e30" data-original="#000000" class=""></path><path d="m51 4c-3.86 0-7 3.14-7 7s3.14 7 7 7 7-3.14 7-7-3.14-7-7-7zm0 12c-2.757 0-5-2.243-5-5s2.243-5 5-5 5 2.243 5 5-2.243 5-5 5z" fill="#bf1e30" data-original="#000000" class=""></path><path d="m14 20h4v2h-4z" fill="#bf1e30" data-original="#000000" class=""></path><path d="m20 20h18v2h-18z" fill="#bf1e30" data-original="#000000" class=""></path><path d="m14 24h24v2h-24z" fill="#bf1e30" data-original="#000000" class=""></path><path d="m14 28h16v2h-16z" fill="#bf1e30" data-original="#000000" class=""></path><path d="m32 28h6v2h-6z" fill="#bf1e30" data-original="#000000" class=""></path><path d="m20 32h2v2h-2z" fill="#bf1e30" data-original="#000000" class=""></path><path d="m24 32h2v2h-2z" fill="#bf1e30" data-original="#000000" class=""></path><path d="m28 32h2v2h-2z" fill="#bf1e30" data-original="#000000" class=""></path><path d="m44.959 39.911c-.635.291-1.065.877-1.152 1.57l-.44 3.52-1.077-1.795c-.447-.744-1.263-1.206-2.131-1.206-1.142 0-2.133.774-2.411 1.883l-.063.252-1.407-2.813c-.406-.815-1.226-1.322-2.138-1.322-1.136 0-2.122.809-2.344 1.922l-.331 1.655-3.866-4.296c-.734-.814-1.783-1.281-2.878-1.281-1.5 0-2.721 1.221-2.721 2.721 0 .293.047.583.126.817l1.912 6.735 1.924-.546-1.925-6.778c-.024-.074-.037-.151-.037-.228 0-.398.323-.721.721-.721.53 0 1.038.226 1.392.62l4.863 5.404-.455 2.275c-.183.913.051 1.849.641 2.568.59.72 1.462 1.133 2.393 1.133 1.348 0 2.445-1.097 2.445-2.445 0-.605-.223-1.187-.628-1.636l-2.239-2.488.624-3.117c.066-.329.583-.399.733-.098l1.407 2.813c.378.758 1.168 1.189 2.007 1.094.841-.092 1.517-.682 1.722-1.504l.063-.251c.096-.381.685-.468.886-.132l1.077 1.795c.445.742 1.28 1.104 2.127.928.847-.179 1.464-.85 1.572-1.709l.44-3.52 1.654 1.103 1.109-1.664-1.654-1.104c-.579-.387-1.306-.443-1.941-.154zm-11.073 9.346c.073.082.114.187.114.298 0 .245-.2.445-.445.445-.329 0-.638-.146-.847-.4-.208-.255-.291-.585-.227-.908l.163-.814z" fill="#bf1e30" data-original="#000000" class=""></path></g></g></svg>