<svg xmlns="http://www.w3.org/2000/svg" version="1.1" xmlns:xlink="http://www.w3.org/1999/xlink" xmlns:svgjs="http://svgjs.com/svgjs" width="512" height="512" x="0" y="0" viewBox="0 0 62 62" style="enable-background:new 0 0 512 512" xml:space="preserve" class=""><g><g><path d="m17.509 33.557c.88.294 1.799.443 2.729.443.945 0 1.877-.162 2.762-.461v3.698l2.382 4.763h-11.382v2h14c.998 0 1.896-.555 2.342-1.447l2.658-5.317v-9.438c.375.121.766.2 1.171.2 2.111 0 3.829-1.718 3.829-3.828 0-1.023-.398-1.984-1.122-2.707l-3.766-3.766c-.036-.036-.076-.066-.113-.101v-12.596c0-2.757-2.243-5-5-5s-5 2.243-5 5v11h-.868c-.896 0-1.792.212-2.592.611l-5.919 2.96c-.508-.931-1.486-1.571-2.62-1.571h-11v16h11c1.192 0 2.215-.704 2.699-1.713zm8.253-1.557 1.238-1.032v5.032h-2v-3.441c.262-.173.519-.356.762-.559zm-.762-22h2v12.499c-.718.276-1.392.659-2 1.15zm4 0h2v12.279c-.407-.178-.854-.279-1.325-.279-.227 0-.452.013-.675.033zm0 26v-6.625c.535-.371 1.103-.688 1.727-.897.095-.032.182-.076.273-.116v7.638zm-.447 5.658c-.211.422-.895.422-1.105 0l-1.83-3.658h4.764zm6.912-18.78c.34.341.535.811.535 1.293 0 1.008-.82 1.828-1.829 1.828-.435 0-.843-.159-1.171-.436v-5.15zm-7.465-20.878c1.654 0 3 1.346 3 3v3h-6v-3c0-1.654 1.346-3 3-3zm-7.565 16.4c.524-.262 1.111-.4 1.697-.4h.868v7.501c-.487.324-1.059.499-1.657.499l-3.343-.001-.001 2 3.344.001c1.335 0 2.591-.521 3.536-1.465l.937-.937c1.031-1.031 2.401-1.598 3.859-1.598.731 0 1.325.594 1.325 1.324 0 .571-.364 1.077-.905 1.257-1.056.353-2.023.891-2.877 1.602l-2.736 2.28c-1.739 1.449-4.2 1.912-6.34 1.197l-4.142-1.38v-8.661zm-8.435 12.6c0 .552-.449 1-1 1h-9v-12h9c.551 0 1 .448 1 1z" fill="#bf1e30" data-original="#000000" class=""></path><path d="m49 5c-4.411 0-8 3.589-8 8s3.589 8 8 8 8-3.589 8-8-3.589-8-8-8zm0 14c-3.309 0-6-2.691-6-6s2.691-6 6-6 6 2.691 6 6-2.691 6-6 6z" fill="#bf1e30" data-original="#000000" class=""></path><path d="m49 9c-2.206 0-4 1.794-4 4s1.794 4 4 4 4-1.794 4-4-1.794-4-4-4zm0 6c-1.103 0-2-.897-2-2s.897-2 2-2 2 .897 2 2-.897 2-2 2z" fill="#bf1e30" data-original="#000000" class=""></path><path d="m60.174 8.648c-.062-.158-.127-.315-.196-.471l.836-1.749-5.244-5.241-1.748.836c-.157-.069-.314-.135-.471-.196l-.643-1.827h-7.415l-.645 1.826c-.157.062-.314.127-.471.196l-1.747-.835-5.244 5.242.836 1.749c-.069.155-.134.313-.196.471l-1.826.643v7.416l1.826.644c.062.158.127.315.196.471l-.836 1.749 5.244 5.242 1.748-.836c.157.069.314.135.471.196l.643 1.826h7.415l.645-1.826c.157-.062.314-.127.471-.196l1.748.836 5.244-5.242-.836-1.749c.069-.155.134-.313.196-.471l1.825-.644v-7.416zm-.174 6.644-1.392.491-.157.458c-.132.385-.292.771-.477 1.146l-.214.436.638 1.335-3.242 3.242-1.334-.639-.435.214c-.381.187-.766.347-1.146.477l-.458.156-.491 1.392h-4.585l-.491-1.393-.458-.156c-.38-.13-.765-.29-1.146-.477l-.435-.214-1.334.639-3.242-3.242.638-1.335-.214-.436c-.185-.375-.345-.761-.477-1.146l-.157-.458-1.391-.49v-4.584l1.392-.491.157-.458c.132-.385.292-.771.477-1.146l.214-.436-.638-1.335 3.242-3.242 1.334.639.435-.214c.381-.187.766-.347 1.146-.477l.458-.156.491-1.392h4.585l.491 1.393.458.156c.38.13.765.29 1.146.477l.435.214 1.334-.639 3.242 3.242-.638 1.335.214.436c.185.375.345.761.477 1.146l.157.458 1.391.49z" fill="#bf1e30" data-original="#000000" class=""></path><path d="m14 48v2h1c17.421 0 35-6.803 35-22h-2c0 13.815-16.574 20-33 20z" fill="#bf1e30" data-original="#000000" class=""></path><path d="m54 60h-2v-16h-8v16h-2v-12h-8v12h-2v-10h-8v10h-2v-8h-8v10h48v-24h-8zm-34 0h-4v-6h4zm26-14h4v14h-4zm-10 4h4v10h-4zm-10 2h4v8h-4zm30-12h4v20h-4z" fill="#bf1e30" data-original="#000000" class=""></path></g></g></svg>